<svg t="1739850357891" class="icon" viewBox="0 0 1024 1024" version="1.1" xmlns="http://www.w3.org/2000/svg" p-id="8986" data-spm-anchor-id="a313x.search_index.0.i0.722f3a81bYXA2p" width="64" height="64"><path d="M896 261.4272L524.7488 475.136a25.6 25.6 0 0 1-25.6 0L128 261.4272a25.6 25.6 0 0 1 0-44.3392L499.2512 3.4304a25.6 25.6 0 0 1 25.6 0L896 217.088a25.6 25.6 0 0 1 0 44.3392zM934.3488 333.4656L563.7632 547.84a25.6 25.6 0 0 0-12.7488 22.1184l-0.512 428.1856a25.6 25.6 0 0 0 38.4512 22.2208l370.5856-214.528a25.6 25.6 0 0 0 12.7488-22.1696l0.512-428.1856a25.6 25.6 0 0 0-38.4512-22.016zM51.2 355.6352l0.512 428.1856a25.6 25.6 0 0 0 12.7488 22.1696L435.2 1020.5184a25.6 25.6 0 0 0 38.2976-22.1184l-0.512-428.1856a25.6 25.6 0 0 0-12.7488-22.3744L89.6512 333.4656A25.6 25.6 0 0 0 51.2 355.6352z" fill="#00C080" p-id="8987"></path></svg>