<?xml version="1.0" standalone="no"?><!DOCTYPE svg PUBLIC "-//W3C//DTD SVG 1.1//EN" "http://www.w3.org/Graphics/SVG/1.1/DTD/svg11.dtd"><svg t="1735117508169" class="icon" viewBox="0 0 1024 1024" version="1.1" xmlns="http://www.w3.org/2000/svg" p-id="5194" xmlns:xlink="http://www.w3.org/1999/xlink" width="200" height="200"><path d="M429.5 728.2h36.6V593.4h51.4v-32.9H378.1v32.9h51.4zM251.2 658.9h68.5v69.3h36.7V560.5h-36.7v65.4h-68.5v-65.4h-36.6v167.7h36.6zM583.1 728.2h36.7V593.4h51.4v-32.9H531.8v32.9h51.3zM734.2 668.1h33.4c41.9 0 62.8-18 62.8-54 0-35.7-20.8-53.6-62.3-53.6h-70.5v167.7h36.7v-60.1z m0-74.7H766c10.1 0 17.2 1.7 21.4 5h0.2c4 3 5.9 8.2 5.9 15.6 0 7.6-1.9 13-5.8 16.1-4.5 3.3-11.7 5-21.7 5h-31.8v-41.7zM802.2 172.7H680c-18.2 0-32.9 14.7-32.9 32.9s14.7 32.9 32.9 32.9h122.1c18.2 0 32.9-14.7 32.9-32.9s-14.6-32.9-32.8-32.9z" p-id="5195" fill="#1fa56b"></path><path d="M457.1 203.5m-33.8 0a33.8 33.8 0 1 0 67.6 0 33.8 33.8 0 1 0-67.6 0Z" p-id="5196" fill="#1fa56b"></path><path d="M841.3 62H182.7C116.1 62 62 116.1 62 182.7v658.5C62 907.9 116.1 962 182.7 962h658.5c66.7 0 120.7-54.1 120.7-120.7V182.7C962 116.1 907.9 62 841.3 62z m54.8 779.3c0 30.3-24.6 54.9-54.9 54.9H182.7c-30.3 0-54.9-24.6-54.9-54.9V348.7h768.3v492.6z m0-558.4H127.9V182.7c0-30.3 24.6-54.9 54.9-54.9h658.5c30.3 0 54.9 24.6 54.9 54.9v100.2z" p-id="5197" fill="#1fa56b"></path><path d="M220.2 203.5m-33.8 0a33.8 33.8 0 1 0 67.6 0 33.8 33.8 0 1 0-67.6 0Z" p-id="5198" fill="#1fa56b"></path><path d="M338.7 203.5m-33.8 0a33.8 33.8 0 1 0 67.6 0 33.8 33.8 0 1 0-67.6 0Z" p-id="5199" fill="#1fa56b"></path></svg>