<svg t="1741943999391" class="icon" viewBox="0 0 1024 1024" version="1.1" xmlns="http://www.w3.org/2000/svg" p-id="19197" width="200" height="200"><path d="M122.54216 1024h-41.599983c-1.056-2.815999-2.079999-5.599998-2.975999-8.415997C68.778182 987.168015 52.623188 952.00003 48.43119 923.681041c-6.239997-41.982983 33.278986-44.318982 58.622976-62.499974 39.038984-28.159988 69.758971-43.742982 112.093954-69.150972 12.575995-7.583997 50.430979-26.591989 54.654978-35.326985 8.575996-17.407993-14.719994-41.886983-20.899992-55.518978-9.599996-21.599991-14.719994-39.934984-16.031993-61.182975-35.166986-5.599998-62.078975-26.751989-78.686968-50.558979-26.879989-39.454984-45.470981-112.413954-22.399991-167.932931 1.919999-4.383998 10.847996-13.023995 12.159995-19.743992 2.559999-13.183995-4.479998-30.719987-5.151998-44.766981-2.559999-72.19097 12.159995-134.399945 60.830975-156.157936 19.743992-78.494968 90.142963-104.669957 156.699936-143.645941 24.79999-14.591994 52.222979-23.96799 80.638967-34.430986C542.182988-14.639574 698.148924-7.599577 782.082889 56.175397c35.678985 27.007989 92.830962 84.094966 113.309954 125.405949 53.854978 109.021955 49.91898 291.226881 12.255995 423.899826-5.151998 17.951993-12.415995 44.030982-22.751991 65.406973-7.167997 14.879994-29.407988 44.799982-26.655989 58.014976 2.719999 13.407995 50.718979 49.91898 61.086975 59.518976 18.527992 18.015993 53.758978 41.599983 56.478977 63.999973 2.975999 23.77599-10.591996 56.990977-17.499993 79.999968-9.247996 30.750987-18.591992 61.470975-27.899989 90.910962H122.44616z m473.751805-151.069938c-23.26399-12.767995-58.078976-26.499989-88.094963-32.254987-37.086985-7.007997-33.246986 50.686979-31.999987 85.086965 1.279999 27.422989 15.391994 56.158977 21.791991 74.39997 3.199999 8.415997 3.807998 17.499993 10.879995 19.167992 12.799995 2.911999 55.038977-13.919994 67.199973-20.447992 25.59999-13.983994 45.406981-35.999985 67.166972-50.718979 0.672-7.263997 0.672-14.499994 1.312-21.663991a112.932954 112.932954 0 0 0-46.750981-11.807995c13.407995-6.399997 31.999987-6.399997 44.158982-14.175994l0.671999-8.223997c-21.151991-1.312999-29.407988-10.848996-43.551982-18.590992z m318.07487 125.245949c8.223997-26.399989 15.327994-52.099979 19.839992-74.75097 2.527999-12.255995 9.183996-39.166984 7.583997-50.174979-2.527999-19.583992-29.183988-34.078986-42.846983-46.334981-24.92799-22.399991-40.574983-41.599983-66.590972-62.686974-10.591996 15.999993-33.246986 26.239989-41.886983 39.006984 61.726975-29.407988 72.92697 111.999954 48.67098 157.404935 3.839998 14.079994 16.671993 19.231992 21.919991 31.391987l-3.680999 7.067997h55.006978a2.430999 2.430999 0 0 1 1.919999 0.608z m-283.099884-0.512c-2.079999-3.167999-4.255998-5.759998-6.399997-8.927997l-12.831995 8.319997h19.231992z m118.237952 0c0.352-8.927996 0.768-17.247993 1.247999-25.49999-22.559991 1.247999-35.166986-20.479992-50.974979-22.499991-13.823994-1.919999-25.59999 15.391994-43.518982 8.319997-4.099998 4.479998-7.839997 9.699996-12.159995 13.471995a199.386918 199.386918 0 0 1 18.079992 24.927989h34.814986c0.608-7.007997 5.759998-12.159995 12.767995-12.159995 7.071997 0 12.159995 5.151998 12.159995 11.519996h28.158988z m90.270963 0c-13.407995-20.447992-40.414983-38.299984-71.678971-23.67999l-1.312 23.07199h72.990971z m-363.065852 0l-4.479998-14.687994c-9.599996-30.750987-15.327994-53.758978-17.279993-71.678971-39.006984-18.591992-79.999967-37.150985-113.245953-60.830975-6.399997-4.479998-47.326981-57.599976-52.478979-55.678977-74.20697 28.830988-143.325941 79.326967-205.399915 127.325948 10.911996 23.77599 20.479992 48.67098 29.439988 74.238969h362.868851z m352.633856-90.142963c-1.247999-21.855991-7.007997-66.590973-20.479992-74.23897-28.159988-16.671993-78.750968 33.246986-99.837959 40.222984 1.919999 6.399997 5.759998 11.551995 6.399998 20.479991 12.159995-3.167999 27.519989-1.247999 38.299984 3.935999-12.767995 1.247999-26.847989 1.247999-35.166986 7.007997-3.167999 8.319997 0.672 20.479992-1.247999 32.606986 29.407988 8.415997 63.999974 12.927995 101.757958 14.175995 7.007997-9.699996 9.599996-27.519989 8.991996-46.174981z m-174.076929-15.359994c-1.919999 15.999993 1.919999 21.759991 5.087998 40.222984 53.758978 16.671993 44.158982-74.23897-5.759997-40.926984zM373.738057 832.000079c-19.199992 19.487992 54.238978 46.174981 77.406968 47.58298 0-12.415995 7.039997-24.06399 5.759998-32.899986-27.679989-4.991998-64.094974-1.759999-82.974966-14.751994z m237.439902 9.186996c0 1.823999-2.591999 1.247999-2.911998 2.719999 24.73599 19.231992 43.262982 23.26399 76.926968 21.759991 15.099994-11.167995 28.575988-24.03199 44.510982-34.430986-36.478985 3.167999-82.430966 25.887989-118.399952 9.759996zM757.091899 84.846385c-68.478972-38.654984-185.599924-67.870972-259.227893-31.199987-58.878976 29.535988-139.517943 78.559968-166.365932 140.446942 25.59999 59.806975-7.071997 114.589953-9.631996 175.324928-0.768 32.351987 15.359994 60.574975 16.671993 95.710961-8.543996 14.431994-35.199986 16.223993-53.758978 15.199994-6.239997-31.099987-17.119993-66.078973-49.27898-69.599971-45.406981-4.899998-78.718968 32.638987-80.670967 71.83897-2.559999 46.046981 35.582985 122.20595 88.990964 117.117952 20.831991-1.951999 25.951989-23.071991 48.60698-23.071991 12.159995 24.31999-18.975992 31.999987-22.299991 49.27898-0.672 4.479998 2.527999 21.791991 4.447998 30.079988 9.951996 40.286983 31.742987 92.126962 53.118979 122.87795 27.099989 38.399984 80.382967 44.830982 137.757943 48.67098 10.239996-22.399991 47.99998-20.479992 72.79997-14.751994-29.470988-11.519995-56.990977-40.318983-79.999967-65.246974-26.239989-28.831988-52.478978-60.158975-53.790978-97.27796 49.27898 68.446972 89.599963 127.965948 179.228927 158.044935 67.838972 22.399991 147.16594-10.847996 198.999918-47.32698 21.759991-15.327994 34.590986-39.678984 49.91898-61.406975 57.599976-82.590966 84.478965-200.956918 78.750967-315.514871-2.591999-47.390981-2.591999-94.749961-18.591992-126.077948-16.607993-33.310986-72.31897-62.750974-105.599957-33.310986-6.399997-32.606987 26.847989-52.446978 65.918973-40.926983-28.159988-36.478985-56.990977-79.326967-96.66996-101.757959zM579.429972 635.558159C605.669962 701.445132 695.684925 693.700135 771.682893 692.000136c-3.583999 8.287997-10.911996 18.559992-19.839991 21.983991-24.31999 9.887996-91.550962 17.407993-125.341949-0.512-21.599991-11.551995-35.166986-37.246985-47.006981-52.350978-5.855998-7.327997-33.918986-25.951989-0.511999-25.98399z m7.007997-37.150984c38.110984 19.839992 107.517956 22.111991 159.228935 20.479991 2.815999 11.423995 2.815999 25.34399 2.911999 39.006984-66.174973 3.423999-144.509941-12.959995-161.916934-59.518975z m284.826884-24.95999c-20.191992 38.399984-48.86298 80.926967-108.317956 82.270966-0.992-12.127995-1.919999-31.358987 0-38.558984 45.406981-4.383998 73.69497-27.551989 108.509956-43.390982zM843.585864 545.000196c-43.518982 28.159988-91.899962 58.654976-163.164933 51.614979-15.007994-13.215995-20.735991-42.718982-6.015998-62.206974 7.775997 13.343995 2.591999 37.758985 24.31999 41.342983 40.318983 7.071997 87.006964-24.67199 116.477953-35.838985 17.919993-30.367988-1.919999-41.599983-17.919993-61.086975-33.311986-39.710984-78.078968-89.599963-76.830968-149.757939 13.407995-9.599996 14.751994 14.719994 16.671993 19.167992 17.247993 40.990983 60.766975 92.830962 92.766962 127.999948 7.679997 8.991996 20.479992 16.671993 21.759991 22.39999 3.935998 16.607993-10.847996 36.446985-8.927997 47.326981z m-573.430765-28.799988c-13.407995-7.839997-16.767993-42.238983-32.766986-43.099982-22.815991-1.279999-18.687992 44.766982-18.591993 71.646971-15.775994-14.047994-18.559992-58.206976-7.007997-80.638967-13.151995-6.399997-18.975992 7.039997-26.367989 12.159995 9.375996-67.838972 99.837959-31.327987 84.862965 40.958983z m-69.085971-260.443893c-29.215988 32.254987-23.039991 92.765962-19.583992 136.029944 53.086978-33.499986 123.645949 2.559999 123.005949 59.518976 25.37599-0.672 9.499996-31.742987 4.899998-51.838979-15.071994-65.246973 25.24799-136.029944 1.759999-195.83692-45.406981 3.551999-82.718966 22.143991-109.981955 51.806979z m389.10884 47.486981c13.087995 23.96799 17.247993 48.99098 35.838985 66.974972 8.319997 8.159997 24.47999 18.079993 16.511993 40.574984-1.919999 5.151998-15.583994 16.671993-23.51999 19.199992-28.767988 8.319997-96.157961 1.279999-73.43897-34.558986 24.03199 0.64 56.062977 15.327994 73.88697-1.919999-13.407995-22.399991-37.758985-65.278973-28.767988-90.878963z m264.507891-0.544h2.911999c14.079994 28.511988 25.59999 58.654976 42.846983 83.838965-11.519995 26.847989-87.582964 50.782979-86.299965 2.431999 16.607993-7.263997 44.766982-1.499999 59.518976-10.655995-8.223997-23.71199-20.479992-42.910982-18.527993-75.550969z m-295.607878-68.990972c-60.670975-14.079994-90.910963 25.24799-109.213956 66.270973-16.383993-3.999998-9.855996-26.239989-5.759997-37.662985 10.879996-29.919988 54.622978-69.662971 90.399963-64.254973 15.327994 2.431999 36.190985 16.479993 24.57599 35.582985zM411.369041 67.951392c-66.558973 18.783992-151.899938 67.166972-179.199926 126.877948 21.119991-2.975999 35.838985-13.699994 56.734977-14.975994 7.935997-0.672 18.271993 3.167999 27.359988 0.64 18.079993-4.447998 33.278986-45.438981 47.006981-60.126975 13.279995-14.751994 29.215988-21.215991 40.158984-34.590986 7.071997-3.839998 17.407993-3.167999 17.919992-14.079994-3.167999-3.199999-6.399997-5.759998-9.951996-4.479999z" fill="#07840f" p-id="19198"></path></svg>