<?xml version="1.0" standalone="no"?><!DOCTYPE svg PUBLIC "-//W3C//DTD SVG 1.1//EN" "http://www.w3.org/Graphics/SVG/1.1/DTD/svg11.dtd"><svg t="1739854957318" class="icon" viewBox="0 0 1024 1024" version="1.1" xmlns="http://www.w3.org/2000/svg" p-id="11978" xmlns:xlink="http://www.w3.org/1999/xlink" width="200" height="200"><path d="M512.00016 1023.9984a508.798251 508.798251 0 0 1-362.046755-149.951485A508.798251 508.798251 0 0 1 0.00192 512.00016 508.798251 508.798251 0 0 1 149.953405 149.953405 508.798251 508.798251 0 0 1 512.00016 0.00192a508.798251 508.798251 0 0 1 362.046755 149.951485A508.798251 508.798251 0 0 1 1023.9984 512.00016a508.798251 508.798251 0 0 1-149.951485 362.046755A508.798251 508.798251 0 0 1 512.00016 1023.9984zM416.00049 270.112991a96.767667 96.767667 0 0 0-48.255834 13.151955 95.039673 95.039673 0 0 0-47.807836 83.007715v291.422998a95.039673 95.039673 0 0 0 47.807836 83.007715 96.607668 96.607668 0 0 0 48.255834 13.119955 96.639668 96.639668 0 0 0 47.615836-12.799956l254.975124-145.759499a94.879674 94.879674 0 0 0 48.383834-83.199714 94.975674 94.975674 0 0 0-48.383834-83.359714l-254.975124-145.727499A96.223669 96.223669 0 0 0 416.00049 270.112991z m0.159999 419.710558a33.471885 33.471885 0 0 1-16.287944-4.479985 31.295892 31.295892 0 0 1-15.999945-27.647905v-291.422998a31.487892 31.487892 0 0 1 15.999945-27.679905 33.663884 33.663884 0 0 1 16.319944-4.479985 31.487892 31.487892 0 0 1 15.615947 4.351986l255.039123 145.727499a31.551892 31.551892 0 0 1 15.999945 27.807904 31.551892 31.551892 0 0 1-15.999945 27.807904l-255.039123 145.727499a31.007893 31.007893 0 0 1-15.615947 4.319986z" fill="#41C981" p-id="11979"></path></svg>