<?xml version="1.0" standalone="no"?><!DOCTYPE svg PUBLIC "-//W3C//DTD SVG 1.1//EN" "http://www.w3.org/Graphics/SVG/1.1/DTD/svg11.dtd"><svg t="1740107661272" class="icon" viewBox="0 0 1024 1024" version="1.1" xmlns="http://www.w3.org/2000/svg" p-id="83647" xmlns:xlink="http://www.w3.org/1999/xlink" width="200" height="200"><path d="M487.9872 1008.64V801.792c-45.6704 1.2288-89.856 5.1712-131.1744 12.0832C389.632 920.576 438.3744 990.208 487.936 1008.64z m224-480.512h-184.0128v232.96c54.1696 0.768 106.1376 5.1712 154.2656 13.2096 17.5616-70.0416 28.5184-153.088 29.7472-246.1696zM527.9744 270.848v216.7296h183.9104c-1.5872-86.272-11.7248-163.9424-27.6992-230.2976-48.7424 8.2944-101.1712 12.8-156.16 13.568z m0-259.072V230.4c50.688-0.7168 99.84-5.0688 145.6128-12.6976-35.4304-119.808-90.6752-194.816-145.6128-205.8752z m-39.936 218.3168V15.2576c-50.8928 18.8416-100.7104 91.3408-133.5808 202.5984 42.0864 7.0144 87.1424 11.2128 133.5296 12.288zM316.1088 487.6288h171.8272V270.6432a1017.0368 1017.0368 0 0 1-144.128-13.312c-15.9744 66.3552-26.112 144.0256-27.648 230.2976z m29.5424 286.6688c44.6976-7.424 92.4672-11.8272 142.336-13.056v-233.1136H316.0064c1.2288 93.0304 12.1856 176.128 29.696 246.1696z m182.272 27.2896v210.5856c53.7088-10.8032 107.7248-82.8416 143.3088-198.2464a946.4832 946.4832 0 0 0-143.3088-12.288z m224.0512-273.4592c-1.1264 92.672-11.9808 178.944-30.4128 253.6448 70.656 15.1552 132.1472 37.7856 180.2752 66.0992A518.8608 518.8608 0 0 0 1024 528.128h-272.0256z m-475.8528-40.4992c1.5872-86.528 11.5712-167.1168 28.4672-237.9264-73.5232-15.872-136.9088-39.936-185.6-69.9904a518.8096 518.8096 0 0 0-118.784 307.9168h275.968z m30.4128 294.144c-18.432-74.7008-29.2864-160.8704-30.4128-253.6448H0c3.6864 122.5728 49.6128 234.496 123.4432 321.3312 48.64-29.0304 111.104-52.2752 183.1424-67.6864zM723.456 249.856c16.896 70.656 26.8288 151.4496 28.416 237.9264h271.872a518.7584 518.7584 0 0 0-117.4016-306.3296c-48.2304 29.2864-110.7968 52.8384-182.8864 68.4544zM595.2 0.9216c48.8448 39.1168 89.9584 113.1008 117.9136 209.3568 65.1264-14.0288 122.0608-34.6112 166.0416-59.5968A510.6688 510.6688 0 0 0 595.2 0.8704zM434.3296 1024c-48.2304-37.888-88.9856-109.312-117.0432-202.8544-64.8704 13.824-121.6 33.9968-165.7856 58.624A508.3136 508.3136 0 0 0 434.3296 1024z m276.48-202.8544c-27.8528 92.672-68.096 163.7376-115.712 201.8816 108.032-17.8688 204.8-69.632 279.04-144.64-43.8784-23.9616-99.7376-43.6736-163.328-57.2416z m-395.776-610.816C343.1936 113.2544 384.768 38.912 434.2784 0a509.1328 509.1328 0 0 0-287.744 149.2992c44.288 25.6 102.144 46.7456 168.6016 61.0304z" fill="#399ac4" p-id="83648"></path></svg>