<?xml version="1.0" standalone="no"?><!DOCTYPE svg PUBLIC "-//W3C//DTD SVG 1.1//EN" "http://www.w3.org/Graphics/SVG/1.1/DTD/svg11.dtd"><svg t="1739425199462" class="icon" viewBox="0 0 1024 1024" version="1.1" xmlns="http://www.w3.org/2000/svg" p-id="33531" xmlns:xlink="http://www.w3.org/1999/xlink" width="200" height="200"><path d="M489.6 628.5L615.4 512 489.6 395.6v232.9z m200.7-63.7l-163.2 151c-14.3 13.3-32.9 20.2-51.8 20.2-10.4 0-21.1-2.2-31-6.5-27.4-11.9-44.3-37.4-44.3-66.5V361c0-29.1 16.9-54.6 44.3-66.5 28-12.3 60.6-6.9 82.9 13.7l163.1 151c14.8 13.7 23.3 32.9 23.3 52.8s-8.5 39.1-23.3 52.8M512 64C265 64 64 265 64 512s201 448 448 448 448-201 448-448S759 64 512 64" fill="#57D344" p-id="33532"></path></svg>